<?xml version="1.0" encoding="UTF-8"?>
<svg id="svg" version="1.1" xmlns="http://www.w3.org/2000/svg" xmlns:xlink="http://www.w3.org/1999/xlink" width="400" height="292.03125" viewBox="0, 0, 400,292.03125"><g id="svgg"><path id="path0" d="M142.917 78.482 C 139.806 79.321,139.333 80.278,139.333 85.744 L 139.333 89.833 120.458 89.835 C 105.265 89.837,101.421 89.881,100.749 90.059 C 96.970 91.066,93.881 94.260,92.907 98.167 C 92.643 99.225,92.549 138.407,92.809 138.569 C 93.426 138.949,98.843 136.450,99.417 135.520 C 99.521 135.351,99.617 130.906,99.674 123.583 C 99.760 112.514,99.820 110.965,100.180 110.592 C 100.265 110.505,100.333 110.332,100.333 110.209 C 100.333 109.462,102.761 106.622,104.333 105.530 C 106.693 103.891,107.698 103.794,121.583 103.864 C 135.248 103.933,135.681 103.989,137.948 105.976 C 139.495 107.334,139.841 107.720,140.551 108.889 C 141.896 111.106,142.031 111.707,142.148 116.000 L 142.250 119.750 145.333 121.278 C 147.029 122.118,148.548 122.812,148.708 122.820 C 149.146 122.840,149.162 82.428,148.726 81.295 C 147.945 79.271,145.100 77.893,142.917 78.482 M147.961 135.186 C 147.443 135.609,144.728 137.246,142.695 138.361 L 142.189 138.638 142.124 145.777 C 142.051 153.748,142.093 153.429,140.795 155.870 C 139.472 158.358,136.896 160.333,133.990 161.086 C 132.372 161.505,108.268 161.379,107.083 160.944 C 104.137 159.864,102.218 158.318,100.844 155.916 C 99.737 153.982,99.672 153.510,99.669 147.395 C 99.666 141.161,99.915 141.804,97.328 141.352 C 96.277 141.169,94.929 140.903,94.333 140.762 C 93.737 140.621,93.119 140.504,92.958 140.502 C 92.525 140.499,92.503 203.500,92.936 205.195 C 93.915 209.030,96.585 211.820,100.583 213.189 C 101.573 213.527,140.094 213.527,141.083 213.189 C 145.080 211.821,147.641 209.125,148.668 205.204 C 149.083 203.619,149.204 134.661,148.792 134.672 C 148.677 134.675,148.303 134.906,147.961 135.186 M236.542 150.458 C 240.919 150.483,248.081 150.483,252.458 150.458 C 256.835 150.434,253.254 150.413,244.500 150.413 C 235.746 150.413,232.165 150.434,236.542 150.458 " stroke="none" fill="#dbe3d3" fill-rule="evenodd"></path><path id="path1" d="M130.384 114.875 C 130.211 115.173,129.938 115.679,129.777 116.000 C 129.484 116.586,129.413 116.700,128.323 118.351 C 127.997 118.846,127.687 119.362,127.635 119.500 C 127.492 119.878,124.255 124.252,123.573 124.990 C 123.244 125.345,122.794 125.881,122.573 126.180 C 121.754 127.291,116.873 132.033,116.145 132.427 C 115.965 132.524,115.502 132.903,115.117 133.268 C 109.876 138.242,98.957 141.298,91.583 139.855 C 89.481 139.444,87.636 138.923,87.223 138.624 C 87.110 138.542,86.978 138.567,86.906 138.684 C 86.721 138.983,87.257 139.295,88.314 139.504 C 88.829 139.606,90.017 139.877,90.955 140.106 C 91.893 140.336,92.733 140.478,92.823 140.423 C 92.912 140.368,93.457 140.432,94.034 140.565 C 94.611 140.698,96.021 140.971,97.167 141.171 C 98.313 141.372,99.373 141.644,99.522 141.776 C 99.675 141.911,100.440 142.088,101.272 142.180 C 102.716 142.339,103.789 142.465,106.667 142.814 C 112.980 143.578,122.567 143.549,127.500 142.751 C 128.279 142.625,129.479 142.438,130.167 142.335 C 132.967 141.916,134.637 141.512,137.083 140.661 C 137.633 140.470,138.754 140.087,139.573 139.811 C 141.279 139.237,142.027 138.884,142.214 138.566 C 142.286 138.443,142.998 138.005,143.797 137.592 C 144.596 137.178,146.000 136.341,146.917 135.732 C 147.833 135.122,148.713 134.629,148.871 134.635 C 149.446 134.656,154.994 129.290,154.998 128.708 C 154.999 128.594,155.070 128.500,155.155 128.500 C 155.241 128.500,155.353 128.367,155.405 128.205 C 155.456 128.042,155.724 127.663,155.999 127.361 C 156.717 126.576,156.666 126.498,154.893 125.667 C 154.013 125.254,152.351 124.445,151.200 123.868 C 150.050 123.292,149.007 122.859,148.884 122.906 C 148.607 123.012,142.167 119.925,142.167 119.687 C 142.167 119.593,141.885 119.393,141.542 119.243 C 141.198 119.093,140.718 118.865,140.476 118.736 C 139.331 118.128,134.045 115.571,132.359 114.811 C 131.014 114.203,130.771 114.211,130.384 114.875 " stroke="none" fill="#e11b21" fill-rule="evenodd"></path><path id="path2" d="M289.767 102.622 C 289.716 102.673,289.317 102.710,288.879 102.705 C 288.441 102.700,287.783 102.776,287.417 102.873 C 287.050 102.971,286.525 103.066,286.250 103.086 C 285.975 103.105,285.750 103.137,285.750 103.155 C 285.750 103.174,285.557 103.215,285.322 103.247 C 284.193 103.398,282.306 103.988,282.411 104.158 C 282.456 104.230,282.269 104.263,281.996 104.231 C 281.723 104.199,281.500 104.239,281.500 104.319 C 281.500 104.398,281.294 104.513,281.042 104.573 C 280.076 104.804,279.177 105.216,279.279 105.380 C 279.338 105.476,279.304 105.501,279.200 105.437 C 279.041 105.339,278.393 105.655,276.919 106.549 C 276.737 106.660,276.474 106.864,276.336 107.004 C 276.197 107.143,275.873 107.350,275.616 107.463 C 275.332 107.587,275.195 107.744,275.266 107.860 C 275.333 107.968,275.312 108.006,275.217 107.948 C 275.125 107.891,274.759 108.179,274.403 108.589 C 274.047 108.998,273.660 109.333,273.544 109.333 C 273.428 109.333,273.333 109.448,273.333 109.589 C 273.333 109.729,273.221 109.887,273.083 109.940 C 272.946 109.992,272.833 110.153,272.833 110.296 C 272.833 110.439,272.786 110.508,272.728 110.450 C 272.585 110.307,272.000 111.071,272.000 111.401 C 272.000 111.547,271.869 111.668,271.708 111.669 C 271.477 111.671,271.464 111.702,271.648 111.818 C 271.832 111.935,271.808 112.002,271.526 112.153 C 271.043 112.412,270.827 112.836,270.604 113.972 C 270.580 114.094,270.453 114.261,270.322 114.344 C 270.191 114.427,270.149 114.496,270.229 114.497 C 270.309 114.499,270.291 114.601,270.189 114.724 C 270.086 114.847,269.979 115.169,269.949 115.439 C 269.919 115.710,269.840 116.021,269.773 116.129 C 269.706 116.237,269.626 116.572,269.595 116.871 C 269.564 117.171,269.486 117.544,269.421 117.700 C 269.357 117.856,269.360 118.074,269.428 118.184 C 269.499 118.300,269.481 118.341,269.386 118.283 C 269.162 118.144,269.192 123.207,269.417 123.372 C 269.520 123.448,269.504 123.496,269.375 123.497 C 269.260 123.499,269.167 123.579,269.167 123.677 C 269.167 123.774,269.223 123.819,269.292 123.776 C 269.360 123.734,269.423 123.961,269.430 124.281 C 269.437 124.600,269.549 124.929,269.680 125.012 C 269.827 125.105,269.842 125.163,269.720 125.164 C 269.518 125.167,269.655 125.913,269.941 126.370 C 270.075 126.585,270.095 126.667,270.141 127.218 C 270.155 127.384,270.241 127.474,270.331 127.418 C 270.422 127.362,270.456 127.420,270.407 127.548 C 270.358 127.676,270.434 127.876,270.576 127.994 C 270.717 128.111,270.833 128.348,270.833 128.520 C 270.833 128.693,270.908 128.833,271.000 128.833 C 271.092 128.833,271.167 128.942,271.167 129.075 C 271.167 129.208,271.286 129.383,271.432 129.465 C 271.577 129.547,271.695 129.682,271.693 129.765 C 271.691 129.848,271.894 130.142,272.144 130.417 C 272.394 130.692,272.604 130.992,272.610 131.083 C 272.616 131.175,272.776 131.322,272.966 131.410 C 273.156 131.498,273.390 131.741,273.486 131.952 C 273.641 132.294,273.845 132.408,274.202 132.355 C 274.268 132.345,274.279 132.449,274.226 132.585 C 274.174 132.722,274.218 132.833,274.324 132.833 C 274.430 132.833,274.787 133.096,275.117 133.417 C 275.448 133.737,275.784 134.000,275.866 134.000 C 275.947 134.000,276.177 134.152,276.376 134.337 C 276.575 134.523,276.826 134.641,276.934 134.600 C 277.042 134.558,277.280 134.664,277.464 134.836 C 277.648 135.007,277.833 135.112,277.875 135.069 C 277.918 135.027,278.047 135.106,278.163 135.246 C 278.279 135.386,278.509 135.500,278.673 135.500 C 278.838 135.500,278.997 135.573,279.028 135.662 C 279.058 135.751,279.245 135.848,279.442 135.878 C 279.639 135.908,279.921 136.032,280.067 136.153 C 280.313 136.357,280.408 136.287,280.349 135.946 C 280.336 135.870,280.402 135.856,280.496 135.914 C 280.590 135.972,280.667 136.136,280.667 136.278 C 280.667 136.442,280.760 136.500,280.925 136.436 C 281.068 136.382,281.144 136.402,281.095 136.481 C 281.007 136.623,282.296 137.056,282.806 137.056 C 282.951 137.056,283.254 137.152,283.481 137.269 C 283.707 137.387,283.954 137.445,284.030 137.398 C 284.105 137.352,284.167 137.402,284.167 137.510 C 284.167 137.617,284.300 137.671,284.463 137.628 C 284.626 137.585,284.854 137.652,284.970 137.775 C 285.085 137.899,285.415 138.000,285.702 138.000 C 285.989 138.000,286.342 138.105,286.487 138.233 C 286.739 138.457,288.378 138.980,289.092 139.065 C 289.280 139.088,289.523 139.161,289.633 139.229 C 289.743 139.297,289.908 139.307,290.000 139.250 C 290.092 139.193,290.167 139.226,290.167 139.323 C 290.167 139.421,290.284 139.500,290.427 139.500 C 290.569 139.500,290.640 139.425,290.583 139.333 C 290.527 139.242,290.560 139.167,290.657 139.167 C 290.754 139.167,290.833 139.288,290.833 139.436 C 290.833 139.640,290.954 139.687,291.333 139.631 C 291.608 139.591,291.833 139.617,291.833 139.689 C 291.833 139.761,292.152 139.907,292.542 140.014 C 292.931 140.121,293.475 140.303,293.750 140.419 C 294.025 140.535,294.438 140.683,294.667 140.749 C 295.466 140.977,297.754 142.166,298.275 142.623 C 298.563 142.876,298.953 143.191,299.141 143.322 C 299.329 143.453,299.436 143.635,299.380 143.725 C 299.321 143.821,299.391 143.847,299.548 143.787 C 299.737 143.714,299.789 143.755,299.723 143.927 C 299.671 144.061,299.728 144.290,299.849 144.436 C 301.016 145.841,299.662 149.367,297.708 150.013 C 297.410 150.112,297.167 150.262,297.167 150.346 C 297.167 150.431,297.110 150.491,297.042 150.480 C 296.973 150.469,296.879 150.475,296.833 150.493 C 296.671 150.556,296.080 150.686,295.875 150.704 C 295.760 150.714,295.667 150.768,295.667 150.823 C 295.667 150.879,295.310 150.915,294.875 150.905 C 294.440 150.894,294.021 150.919,293.945 150.961 C 293.721 151.083,291.833 151.094,291.833 150.973 C 291.833 150.913,291.383 150.875,290.833 150.890 C 290.283 150.905,289.833 150.866,289.833 150.804 C 289.833 150.742,289.610 150.719,289.338 150.754 C 289.065 150.788,288.798 150.744,288.743 150.655 C 288.688 150.567,288.579 150.535,288.500 150.583 C 288.421 150.632,288.309 150.596,288.251 150.502 C 288.181 150.388,288.034 150.393,287.803 150.516 C 287.604 150.623,287.503 150.630,287.562 150.534 C 287.687 150.333,287.245 150.124,286.634 150.095 C 286.387 150.083,286.131 150.020,286.065 149.954 C 285.999 149.887,285.774 149.833,285.565 149.833 C 285.357 149.833,285.137 149.753,285.076 149.655 C 285.016 149.557,284.857 149.519,284.724 149.570 C 284.591 149.621,284.523 149.597,284.573 149.517 C 284.622 149.437,284.330 149.288,283.924 149.186 C 283.518 149.084,282.919 148.843,282.593 148.650 C 282.267 148.458,281.999 148.364,281.997 148.442 C 281.996 148.520,281.931 148.482,281.853 148.359 C 281.774 148.235,281.520 148.123,281.288 148.109 C 281.055 148.095,280.896 148.033,280.934 147.972 C 280.972 147.911,280.777 147.811,280.501 147.750 C 280.226 147.690,280.000 147.571,280.000 147.487 C 280.000 147.402,279.865 147.333,279.700 147.333 C 279.535 147.333,279.310 147.243,279.200 147.133 C 279.090 147.023,279.000 146.991,279.000 147.062 C 279.000 147.133,278.878 147.068,278.729 146.919 C 278.579 146.770,278.350 146.688,278.220 146.739 C 278.088 146.789,278.028 146.756,278.085 146.665 C 278.141 146.574,278.069 146.500,277.927 146.500 C 277.784 146.500,277.667 146.413,277.667 146.306 C 277.667 146.199,277.621 146.157,277.566 146.212 C 277.510 146.268,277.308 146.167,277.117 145.989 C 276.925 145.811,276.465 145.512,276.093 145.324 C 275.198 144.873,274.894 144.671,274.308 144.134 C 274.037 143.886,273.670 143.637,273.492 143.581 C 273.313 143.524,273.167 143.370,273.167 143.239 C 273.167 143.107,273.092 143.000,273.000 143.000 C 272.713 143.000,272.602 142.929,272.153 142.459 C 271.734 142.021,271.703 142.014,271.399 142.294 C 270.976 142.686,270.634 143.313,270.745 143.493 C 270.795 143.573,270.741 143.676,270.626 143.723 C 270.461 143.790,270.464 143.841,270.639 143.964 C 270.810 144.084,270.773 144.143,270.480 144.220 C 270.270 144.275,270.151 144.373,270.216 144.438 C 270.281 144.503,270.225 144.724,270.090 144.929 C 269.267 146.187,268.818 147.221,269.030 147.374 C 269.193 147.490,269.175 147.507,268.960 147.438 C 268.746 147.370,268.641 147.464,268.560 147.798 C 268.499 148.046,268.310 148.429,268.140 148.649 C 267.903 148.955,267.876 149.100,268.023 149.277 C 268.176 149.462,268.156 149.485,267.917 149.394 C 267.706 149.313,267.644 149.347,267.703 149.515 C 267.747 149.644,267.583 150.050,267.337 150.417 C 266.941 151.008,266.106 152.613,266.079 152.833 C 266.074 152.879,265.927 153.179,265.752 153.500 C 265.322 154.291,265.310 154.470,265.682 154.588 C 265.857 154.644,266.000 154.759,266.000 154.845 C 266.000 154.930,266.085 155.000,266.189 155.000 C 266.293 155.000,266.514 155.157,266.680 155.349 C 266.846 155.540,267.063 155.647,267.162 155.586 C 267.261 155.525,267.321 155.570,267.296 155.686 C 267.271 155.802,267.400 155.927,267.583 155.965 C 267.767 156.002,268.110 156.241,268.346 156.495 C 268.582 156.749,269.069 157.095,269.429 157.265 C 269.789 157.434,270.229 157.706,270.406 157.870 C 270.584 158.033,270.790 158.176,270.865 158.188 C 270.939 158.199,271.078 158.218,271.173 158.229 C 271.268 158.241,271.401 158.339,271.468 158.448 C 271.596 158.655,272.492 159.073,272.708 159.027 C 272.777 159.012,272.833 159.066,272.833 159.147 C 272.833 159.228,272.965 159.338,273.125 159.391 C 273.285 159.444,273.712 159.599,274.072 159.735 C 274.433 159.871,274.801 159.937,274.890 159.882 C 274.979 159.827,275.001 159.863,274.940 159.962 C 274.836 160.130,275.426 160.441,275.708 160.366 C 275.777 160.348,275.833 160.413,275.833 160.510 C 275.833 160.607,275.908 160.640,276.000 160.583 C 276.092 160.527,276.167 160.552,276.167 160.639 C 276.167 160.726,276.362 160.846,276.602 160.906 C 276.841 160.966,277.362 161.169,277.761 161.356 C 278.159 161.543,278.558 161.651,278.647 161.595 C 278.737 161.540,278.855 161.568,278.910 161.657 C 278.966 161.746,279.133 161.772,279.283 161.714 C 279.464 161.645,279.515 161.675,279.434 161.805 C 279.351 161.939,279.490 162.000,279.879 162.000 C 280.190 162.000,280.497 162.052,280.560 162.116 C 280.624 162.180,280.768 162.250,280.880 162.272 C 280.992 162.294,281.327 162.386,281.625 162.477 C 281.923 162.569,282.167 162.602,282.167 162.551 C 282.167 162.501,282.281 162.554,282.421 162.670 C 282.560 162.786,282.720 162.836,282.775 162.780 C 282.830 162.725,283.091 162.791,283.354 162.928 C 283.618 163.064,283.833 163.144,283.833 163.105 C 283.833 163.067,284.092 163.094,284.409 163.165 C 284.794 163.252,285.011 163.232,285.063 163.106 C 285.113 162.983,285.145 162.994,285.154 163.135 C 285.161 163.255,285.242 163.307,285.333 163.250 C 285.425 163.193,285.500 163.210,285.500 163.287 C 285.500 163.365,285.744 163.423,286.042 163.418 C 286.340 163.412,286.717 163.469,286.880 163.545 C 287.631 163.895,295.564 164.086,295.990 163.765 C 296.172 163.628,296.200 163.634,296.105 163.792 C 295.975 164.009,296.195 164.083,296.390 163.888 C 296.452 163.826,296.671 163.758,296.876 163.737 C 298.905 163.532,299.750 163.411,299.750 163.325 C 299.750 163.306,299.900 163.272,300.083 163.250 C 300.909 163.148,301.653 162.997,302.019 162.858 C 302.238 162.775,302.454 162.710,302.500 162.715 C 302.546 162.719,302.762 162.627,302.981 162.510 C 303.200 162.393,303.613 162.263,303.898 162.220 C 304.183 162.178,304.503 162.032,304.609 161.895 C 304.754 161.708,304.832 161.696,304.926 161.849 C 305.021 162.003,305.094 161.995,305.234 161.817 C 305.334 161.688,305.510 161.576,305.625 161.567 C 306.263 161.516,306.344 161.485,306.250 161.333 C 306.193 161.242,306.246 161.167,306.366 161.167 C 306.645 161.167,308.150 160.380,308.559 160.021 C 308.729 159.872,308.917 159.750,308.976 159.750 C 309.035 159.750,309.063 159.688,309.038 159.613 C 309.012 159.537,309.080 159.530,309.188 159.596 C 309.298 159.665,309.482 159.583,309.609 159.410 C 309.732 159.241,309.833 159.164,309.833 159.239 C 309.833 159.313,309.945 159.281,310.081 159.168 C 310.218 159.055,310.287 158.894,310.236 158.810 C 310.184 158.727,310.204 158.672,310.279 158.689 C 310.532 158.745,310.999 158.467,310.906 158.316 C 310.855 158.234,310.893 158.167,310.990 158.167 C 311.218 158.167,312.501 157.008,312.453 156.845 C 312.433 156.777,312.665 156.511,312.968 156.254 C 313.272 155.997,313.480 155.687,313.432 155.563 C 313.384 155.439,313.436 155.355,313.548 155.377 C 313.659 155.399,313.731 155.323,313.708 155.208 C 313.685 155.094,313.746 155.000,313.842 155.000 C 313.938 155.000,314.096 154.775,314.192 154.500 C 314.287 154.225,314.428 154.039,314.504 154.086 C 314.659 154.181,314.921 153.532,314.859 153.208 C 314.837 153.094,314.897 153.000,314.993 153.000 C 315.088 153.000,315.167 152.850,315.167 152.667 C 315.167 152.483,315.236 152.333,315.320 152.333 C 315.452 152.333,315.723 151.509,315.676 151.251 C 315.667 151.203,315.775 150.940,315.917 150.667 C 316.058 150.394,316.172 150.132,316.170 150.085 C 316.168 150.038,316.172 149.981,316.179 149.958 C 316.696 148.272,316.906 144.387,316.500 144.029 C 316.333 143.882,316.326 143.848,316.478 143.926 C 316.707 144.045,316.707 144.037,316.462 142.250 C 316.437 142.067,316.342 141.862,316.250 141.794 C 316.148 141.719,316.168 141.671,316.302 141.669 C 316.421 141.668,316.473 141.590,316.415 141.497 C 316.357 141.404,316.274 141.123,316.229 140.872 C 316.184 140.622,316.081 140.393,316.000 140.364 C 315.918 140.335,315.892 140.208,315.941 140.080 C 315.990 139.953,315.911 139.679,315.765 139.471 C 315.619 139.263,315.500 138.965,315.500 138.810 C 315.500 138.488,315.001 137.479,314.750 137.294 C 314.639 137.213,314.639 137.169,314.750 137.164 C 314.842 137.160,314.771 137.046,314.593 136.911 C 314.415 136.777,314.335 136.667,314.414 136.667 C 314.493 136.667,314.400 136.498,314.206 136.292 C 314.012 136.085,313.865 135.879,313.879 135.833 C 313.921 135.694,312.873 134.684,312.767 134.761 C 312.712 134.801,312.702 134.785,312.746 134.727 C 312.868 134.562,311.824 133.320,311.652 133.426 C 311.568 133.477,311.500 133.396,311.500 133.244 C 311.500 133.093,311.350 132.930,311.167 132.882 C 310.983 132.834,310.833 132.724,310.833 132.637 C 310.833 132.551,310.758 132.527,310.667 132.583 C 310.575 132.640,310.500 132.608,310.500 132.512 C 310.500 132.233,309.210 131.454,308.981 131.595 C 308.841 131.682,308.809 131.637,308.880 131.452 C 308.956 131.255,308.912 131.211,308.714 131.287 C 308.553 131.349,308.487 131.322,308.551 131.219 C 308.681 131.009,307.877 130.620,307.628 130.774 C 307.529 130.835,307.496 130.808,307.555 130.712 C 307.640 130.576,306.955 130.160,306.500 130.071 C 306.454 130.062,306.289 129.998,306.133 129.929 C 305.977 129.860,305.759 129.860,305.649 129.928 C 305.522 130.006,305.492 129.981,305.567 129.859 C 305.633 129.753,305.603 129.667,305.501 129.667 C 305.399 129.667,304.979 129.514,304.569 129.327 C 304.159 129.140,303.739 129.039,303.636 129.103 C 303.518 129.175,303.495 129.143,303.574 129.015 C 303.652 128.888,303.615 128.828,303.475 128.856 C 303.351 128.881,303.010 128.773,302.717 128.617 C 302.423 128.461,302.044 128.333,301.875 128.333 C 301.705 128.333,301.493 128.260,301.403 128.170 C 301.180 127.947,299.644 127.495,299.472 127.601 C 299.396 127.648,299.333 127.599,299.333 127.492 C 299.333 127.385,299.223 127.340,299.089 127.392 C 298.954 127.443,298.796 127.407,298.737 127.312 C 298.677 127.216,298.488 127.175,298.315 127.220 C 298.142 127.265,297.958 127.233,297.905 127.148 C 297.853 127.064,297.740 127.038,297.655 127.090 C 297.570 127.143,297.500 127.098,297.500 126.990 C 297.500 126.877,297.360 126.831,297.167 126.882 C 296.983 126.930,296.833 126.917,296.833 126.854 C 296.833 126.763,295.719 126.358,295.125 126.234 C 295.056 126.220,294.944 126.190,294.875 126.168 C 294.806 126.145,294.684 126.139,294.604 126.154 C 294.524 126.169,294.336 126.074,294.187 125.943 C 293.829 125.629,293.084 125.398,293.239 125.649 C 293.410 125.926,293.262 125.872,292.833 125.500 C 292.449 125.166,292.071 125.044,292.233 125.306 C 292.280 125.382,292.214 125.444,292.085 125.444 C 291.957 125.444,291.866 125.363,291.884 125.264 C 291.902 125.165,291.778 125.107,291.608 125.136 C 291.399 125.172,291.341 125.123,291.427 124.983 C 291.514 124.842,291.473 124.808,291.298 124.875 C 291.157 124.929,290.845 124.872,290.604 124.747 C 290.363 124.622,290.167 124.558,290.167 124.605 C 290.167 124.651,289.952 124.536,289.690 124.350 C 289.427 124.163,289.165 124.058,289.106 124.116 C 289.048 124.174,289.000 124.130,289.000 124.018 C 289.000 123.906,288.927 123.858,288.839 123.913 C 288.750 123.968,288.582 123.860,288.465 123.673 C 288.349 123.486,288.195 123.333,288.124 123.333 C 287.857 123.333,286.837 122.575,286.835 122.375 C 286.834 122.260,286.775 122.167,286.703 122.167 C 286.543 122.167,285.909 121.132,285.962 120.958 C 285.983 120.890,285.931 120.833,285.847 120.833 C 285.703 120.833,285.716 118.814,285.864 118.083 C 285.902 117.899,286.210 117.479,286.549 117.149 C 286.889 116.819,287.167 116.466,287.167 116.363 C 287.167 116.261,287.274 116.218,287.405 116.268 C 287.535 116.319,288.004 116.190,288.446 115.982 C 289.358 115.554,292.214 115.410,294.083 115.699 C 294.633 115.784,295.346 115.882,295.667 115.917 C 295.987 115.952,296.287 115.994,296.333 116.010 C 296.379 116.026,296.485 116.027,296.568 116.011 C 296.651 115.995,296.766 116.057,296.822 116.149 C 296.928 116.319,297.788 116.539,298.458 116.568 C 298.665 116.576,298.833 116.648,298.833 116.726 C 298.833 116.805,298.941 116.828,299.073 116.777 C 299.204 116.727,299.336 116.757,299.365 116.844 C 299.416 116.998,299.747 117.107,300.710 117.286 C 300.964 117.333,301.212 117.438,301.262 117.519 C 301.312 117.600,301.574 117.667,301.843 117.667 C 302.113 117.667,302.333 117.746,302.333 117.843 C 302.333 117.940,302.402 117.977,302.487 117.925 C 302.571 117.873,302.758 117.948,302.902 118.092 C 303.046 118.237,303.240 118.308,303.332 118.251 C 303.424 118.194,303.500 118.231,303.500 118.333 C 303.500 118.436,303.575 118.473,303.667 118.417 C 303.758 118.360,303.833 118.398,303.833 118.500 C 303.833 118.602,303.908 118.640,304.000 118.583 C 304.092 118.527,304.167 118.568,304.167 118.675 C 304.167 118.782,304.279 118.826,304.417 118.773 C 304.554 118.720,304.667 118.754,304.667 118.848 C 304.667 118.943,304.736 118.977,304.822 118.924 C 304.907 118.871,305.024 118.904,305.082 118.997 C 305.139 119.090,305.326 119.167,305.496 119.167 C 305.666 119.167,305.831 119.223,305.861 119.292 C 305.892 119.360,306.404 119.642,307.000 119.917 C 307.596 120.192,308.121 120.462,308.167 120.518 C 308.331 120.719,309.322 121.167,309.603 121.167 C 309.760 121.167,309.840 121.216,309.780 121.275 C 309.626 121.430,310.517 121.863,310.781 121.761 C 310.901 121.715,311.000 121.573,311.000 121.447 C 311.000 121.320,311.190 120.858,311.423 120.420 C 311.656 119.982,311.807 119.585,311.759 119.537 C 311.711 119.489,311.782 119.367,311.916 119.266 C 312.051 119.166,312.184 118.922,312.213 118.725 C 312.242 118.527,312.343 118.265,312.438 118.141 C 312.859 117.593,313.343 116.431,313.250 116.191 C 313.195 116.046,313.202 115.980,313.266 116.044 C 313.380 116.158,313.833 115.443,313.833 115.150 C 313.833 115.069,313.946 114.872,314.085 114.710 C 314.223 114.549,314.344 114.342,314.354 114.250 C 314.365 114.158,314.476 113.935,314.603 113.755 C 314.730 113.574,314.833 113.255,314.833 113.046 C 314.833 112.837,314.892 112.667,314.963 112.667 C 315.100 112.667,315.559 111.673,315.522 111.458 C 315.510 111.390,315.579 111.333,315.677 111.333 C 315.774 111.333,315.807 111.258,315.750 111.167 C 315.693 111.075,315.717 111.000,315.803 111.000 C 315.969 111.000,316.440 110.002,316.373 109.792 C 316.351 109.723,316.408 109.667,316.500 109.667 C 316.865 109.667,316.628 109.327,315.898 108.802 C 315.475 108.498,315.065 108.250,314.987 108.250 C 314.908 108.250,314.710 108.136,314.547 107.996 C 314.384 107.856,313.987 107.638,313.667 107.511 C 313.346 107.384,313.012 107.217,312.925 107.140 C 312.838 107.063,312.632 107.000,312.467 107.000 C 312.302 107.000,312.167 106.925,312.167 106.833 C 312.167 106.742,312.026 106.667,311.854 106.667 C 311.682 106.667,311.451 106.559,311.342 106.427 C 311.232 106.295,311.045 106.224,310.926 106.269 C 310.807 106.315,310.596 106.239,310.458 106.101 C 310.320 105.962,310.156 105.900,310.094 105.961 C 310.032 106.023,309.924 105.979,309.852 105.864 C 309.781 105.749,309.506 105.616,309.242 105.568 C 308.977 105.520,308.668 105.403,308.554 105.309 C 308.441 105.215,308.258 105.194,308.148 105.261 C 308.022 105.339,307.992 105.314,308.067 105.192 C 308.133 105.087,308.107 105.000,308.010 105.000 C 307.913 105.000,307.833 105.089,307.833 105.199 C 307.833 105.318,307.750 105.292,307.625 105.134 C 307.455 104.919,306.681 104.680,306.043 104.645 C 305.974 104.641,305.842 104.583,305.750 104.516 C 305.590 104.399,304.839 104.160,302.788 103.575 C 302.259 103.424,301.718 103.342,301.585 103.393 C 301.453 103.444,301.296 103.407,301.237 103.312 C 301.177 103.216,300.988 103.175,300.815 103.220 C 300.642 103.265,300.500 103.240,300.500 103.165 C 300.500 103.089,300.236 103.049,299.912 103.074 C 299.589 103.100,299.289 103.064,299.246 102.994 C 299.203 102.924,298.942 102.882,298.667 102.901 C 298.392 102.920,298.167 102.888,298.167 102.829 C 298.167 102.770,298.054 102.722,297.917 102.722 C 297.779 102.722,297.667 102.781,297.667 102.852 C 297.667 102.924,297.439 102.903,297.161 102.806 C 296.883 102.709,296.472 102.665,296.249 102.708 C 296.026 102.750,295.876 102.732,295.916 102.668 C 296.001 102.530,289.904 102.484,289.767 102.622 M15.934 103.930 C 15.879 104.075,15.833 117.424,15.833 133.594 L 15.833 162.994 16.208 163.085 C 16.415 163.135,19.583 163.155,23.250 163.130 L 29.917 163.083 30.001 144.750 C 30.048 134.667,30.104 126.588,30.126 126.797 C 30.148 127.006,30.263 127.214,30.382 127.260 C 30.500 127.305,30.608 127.496,30.622 127.684 C 30.636 127.873,30.743 128.141,30.858 128.280 C 30.974 128.420,31.086 128.651,31.107 128.795 C 31.128 128.938,31.313 129.282,31.517 129.559 C 31.722 129.835,31.889 130.160,31.889 130.281 C 31.889 130.401,31.951 130.500,32.028 130.500 C 32.104 130.500,32.167 130.579,32.167 130.676 C 32.167 131.054,35.106 137.109,35.368 137.271 C 35.440 137.316,35.500 137.501,35.500 137.681 C 35.500 138.025,36.659 140.376,36.876 140.473 C 36.945 140.503,36.955 140.605,36.896 140.700 C 36.838 140.794,36.856 140.918,36.937 140.977 C 37.017 141.035,37.213 141.365,37.372 141.708 C 37.531 142.052,37.735 142.333,37.825 142.333 C 37.916 142.333,37.953 142.429,37.908 142.545 C 37.863 142.662,38.004 143.131,38.221 143.587 C 38.437 144.043,38.719 144.660,38.848 144.958 C 38.976 145.256,39.138 145.500,39.207 145.500 C 39.277 145.500,39.333 145.612,39.333 145.750 C 39.333 145.887,39.421 146.000,39.528 146.000 C 39.635 146.000,39.673 146.049,39.613 146.110 C 39.552 146.170,39.592 146.327,39.702 146.459 C 39.812 146.591,39.925 146.857,39.955 147.051 C 39.984 147.244,40.088 147.451,40.185 147.511 C 40.282 147.571,40.343 147.650,40.321 147.685 C 40.218 147.847,40.711 148.992,40.847 148.908 C 40.931 148.856,41.000 149.006,41.000 149.240 C 41.000 149.475,41.069 149.667,41.153 149.667 C 41.238 149.667,41.356 149.892,41.417 150.167 C 41.477 150.442,41.596 150.667,41.680 150.667 C 41.764 150.667,41.833 150.812,41.833 150.990 C 41.833 151.168,41.913 151.363,42.010 151.423 C 42.178 151.526,42.553 152.342,42.497 152.481 C 42.483 152.517,42.565 152.604,42.679 152.674 C 42.793 152.745,42.897 152.941,42.910 153.110 C 42.943 153.539,43.693 155.000,43.881 155.000 C 43.966 155.000,43.995 155.106,43.945 155.236 C 43.895 155.366,43.967 155.516,44.104 155.568 C 44.242 155.621,44.312 155.733,44.260 155.817 C 44.116 156.050,44.345 156.513,44.543 156.390 C 44.648 156.325,44.668 156.362,44.595 156.482 C 44.211 157.103,44.709 157.167,49.895 157.165 L 54.917 157.163 55.292 156.584 C 55.498 156.265,55.667 155.931,55.667 155.841 C 55.667 155.751,55.811 155.419,55.988 155.104 C 56.165 154.790,56.265 154.487,56.210 154.433 C 56.156 154.378,56.192 154.333,56.290 154.333 C 56.388 154.333,56.703 153.752,56.990 153.042 C 57.277 152.331,57.572 151.637,57.646 151.500 C 57.720 151.362,58.021 150.817,58.314 150.288 C 58.608 149.758,58.796 149.240,58.732 149.137 C 58.660 149.022,58.690 148.995,58.808 149.067 C 58.920 149.137,59.009 149.078,59.021 148.927 C 59.032 148.784,59.060 148.592,59.083 148.500 C 59.106 148.408,59.134 148.254,59.146 148.157 C 59.157 148.060,59.253 148.034,59.359 148.099 C 59.474 148.170,59.506 148.145,59.440 148.037 C 59.378 147.938,59.517 147.578,59.747 147.238 C 59.978 146.898,60.167 146.565,60.167 146.497 C 60.167 146.430,60.353 145.953,60.582 145.437 C 60.810 144.921,61.009 144.443,61.023 144.374 C 61.038 144.306,61.170 144.151,61.317 144.029 C 61.519 143.862,61.523 143.840,61.333 143.936 C 61.127 144.042,61.119 144.020,61.290 143.808 C 61.404 143.668,61.442 143.491,61.374 143.416 C 61.306 143.341,61.341 143.332,61.453 143.397 C 61.690 143.533,62.227 142.400,62.056 142.123 C 61.994 142.023,62.028 141.998,62.136 142.064 C 62.251 142.135,62.368 142.000,62.438 141.715 C 62.501 141.459,62.800 140.781,63.102 140.208 C 63.405 139.635,63.612 139.167,63.564 139.167 C 63.515 139.167,63.631 138.969,63.821 138.728 C 64.011 138.486,64.167 138.154,64.167 137.989 C 64.167 137.825,64.261 137.591,64.377 137.470 C 64.709 137.123,65.015 136.326,64.893 136.128 C 64.822 136.013,64.861 135.998,65.003 136.085 C 65.163 136.184,65.194 136.145,65.117 135.944 C 65.058 135.791,65.068 135.667,65.139 135.667 C 65.303 135.667,66.000 134.239,66.000 133.902 C 66.000 133.762,66.075 133.693,66.167 133.750 C 66.258 133.807,66.333 133.704,66.333 133.522 C 66.333 133.340,66.446 133.078,66.583 132.940 C 66.721 132.803,66.833 132.544,66.833 132.366 C 66.833 132.187,66.945 131.948,67.081 131.835 C 67.218 131.722,67.289 131.562,67.238 131.481 C 67.188 131.400,67.239 131.333,67.351 131.333 C 67.464 131.333,67.508 131.286,67.449 131.227 C 67.391 131.169,67.491 130.913,67.672 130.660 C 67.852 130.406,68.002 130.098,68.005 129.974 C 68.008 129.851,68.121 129.604,68.255 129.426 C 68.390 129.249,68.500 128.967,68.500 128.801 C 68.500 128.636,68.567 128.500,68.649 128.500 C 68.730 128.500,68.847 128.300,68.909 128.055 C 68.970 127.810,69.165 127.426,69.341 127.202 C 69.518 126.978,69.621 126.728,69.571 126.647 C 69.521 126.566,69.560 126.500,69.657 126.500 C 69.818 126.500,69.874 136.561,69.834 158.105 C 69.825 162.419,69.854 162.972,70.092 163.064 C 70.240 163.120,73.391 163.167,77.095 163.167 L 83.830 163.167 83.832 133.417 L 83.835 103.667 75.293 103.668 L 66.750 103.670 66.182 104.877 C 65.869 105.540,65.460 106.421,65.271 106.833 C 65.083 107.246,64.789 107.790,64.619 108.042 C 64.450 108.294,64.365 108.500,64.431 108.500 C 64.497 108.500,64.418 108.648,64.255 108.828 C 64.092 109.008,63.958 109.346,63.958 109.578 C 63.958 109.825,63.863 110.000,63.729 110.000 C 63.603 110.000,63.494 110.056,63.486 110.125 C 63.478 110.194,63.453 110.430,63.429 110.650 C 63.405 110.870,63.255 111.145,63.097 111.261 C 62.938 111.377,62.793 111.574,62.775 111.698 C 62.757 111.822,62.537 112.316,62.286 112.795 C 62.035 113.274,61.887 113.668,61.957 113.669 C 62.026 113.671,62.008 113.727,61.917 113.794 C 61.662 113.981,61.000 115.260,61.000 115.564 C 61.000 115.712,60.930 115.833,60.845 115.833 C 60.699 115.833,60.472 116.315,60.530 116.500 C 60.545 116.546,60.453 116.771,60.326 117.000 C 60.199 117.229,60.112 117.473,60.131 117.542 C 60.151 117.610,60.083 117.667,59.981 117.667 C 59.874 117.667,59.833 117.815,59.886 118.016 C 59.936 118.209,59.933 118.322,59.879 118.268 C 59.699 118.088,59.333 118.535,59.333 118.937 C 59.333 119.155,59.256 119.333,59.161 119.333 C 58.988 119.333,58.299 120.738,58.285 121.118 C 58.281 121.228,58.179 121.357,58.058 121.403 C 57.929 121.453,57.884 121.604,57.948 121.771 C 58.021 121.963,57.994 122.016,57.862 121.934 C 57.738 121.858,57.667 121.935,57.667 122.147 C 57.667 122.330,57.590 122.527,57.497 122.585 C 57.404 122.643,57.368 122.754,57.417 122.833 C 57.465 122.912,57.429 123.024,57.336 123.081 C 57.147 123.198,56.333 124.853,56.333 125.121 C 56.333 125.215,56.217 125.389,56.076 125.506 C 55.934 125.624,55.858 125.824,55.907 125.952 C 55.956 126.080,55.930 126.143,55.849 126.093 C 55.768 126.043,55.575 126.319,55.421 126.705 C 55.104 127.498,53.795 130.205,53.667 130.333 C 53.457 130.543,53.000 131.494,53.000 131.720 C 53.000 131.859,52.927 131.997,52.838 132.028 C 52.749 132.058,52.656 132.271,52.630 132.500 C 52.604 132.729,52.463 133.029,52.316 133.167 C 52.170 133.304,51.945 133.717,51.816 134.083 C 51.688 134.450,51.490 134.849,51.375 134.970 C 51.178 135.179,51.115 135.406,51.208 135.576 C 51.231 135.618,51.107 135.757,50.931 135.885 C 50.734 136.029,50.653 136.223,50.718 136.393 C 50.786 136.570,50.737 136.667,50.578 136.667 C 50.443 136.667,50.333 136.812,50.333 136.990 C 50.333 137.168,50.257 137.361,50.164 137.418 C 50.071 137.476,50.035 137.588,50.083 137.667 C 50.132 137.746,50.106 137.851,50.026 137.901 C 49.946 137.950,49.740 137.674,49.570 137.287 C 49.399 136.900,49.220 136.546,49.171 136.500 C 48.995 136.333,47.497 133.244,47.499 133.051 C 47.499 132.942,47.345 132.743,47.155 132.611 C 46.965 132.478,46.890 132.342,46.987 132.309 C 47.092 132.274,47.016 132.013,46.798 131.667 C 46.597 131.346,46.422 131.046,46.410 131.000 C 46.277 130.513,45.864 129.855,45.754 129.956 C 45.676 130.026,45.665 129.993,45.729 129.882 C 45.839 129.691,45.644 129.218,45.228 128.667 C 45.124 128.529,44.983 128.233,44.914 128.008 C 44.846 127.783,44.687 127.496,44.561 127.371 C 44.436 127.245,44.333 126.954,44.333 126.722 C 44.333 126.437,44.222 126.273,43.986 126.211 C 43.721 126.142,43.691 126.086,43.861 125.977 C 44.043 125.859,44.038 125.804,43.833 125.673 C 43.696 125.584,43.583 125.432,43.583 125.333 C 43.583 125.235,43.486 125.094,43.366 125.020 C 43.247 124.947,43.169 124.818,43.193 124.735 C 43.236 124.585,42.688 123.329,42.509 123.167 C 42.458 123.121,42.393 122.933,42.363 122.750 C 42.334 122.567,42.189 122.323,42.040 122.208 C 41.891 122.094,41.831 122.000,41.905 122.000 C 41.980 122.000,41.947 121.888,41.833 121.750 C 41.719 121.612,41.687 121.500,41.761 121.500 C 41.836 121.500,41.751 121.382,41.574 121.238 C 41.396 121.093,41.362 121.031,41.500 121.100 C 41.685 121.192,41.675 121.138,41.458 120.891 C 41.298 120.707,41.167 120.438,41.167 120.292 C 41.167 120.147,41.110 120.003,41.042 119.972 C 40.973 119.942,40.692 119.467,40.418 118.917 C 40.143 118.367,39.852 117.869,39.771 117.810 C 39.690 117.752,39.675 117.621,39.738 117.519 C 39.806 117.410,39.728 117.328,39.552 117.320 C 39.386 117.313,39.332 117.273,39.432 117.232 C 39.648 117.142,38.907 115.487,38.560 115.283 C 38.435 115.210,38.333 115.013,38.333 114.845 C 38.333 114.678,38.217 114.445,38.076 114.327 C 37.934 114.209,37.857 114.013,37.904 113.890 C 37.951 113.767,37.917 113.667,37.828 113.667 C 37.739 113.667,37.667 113.544,37.667 113.395 C 37.667 113.245,37.505 112.982,37.308 112.811 C 37.110 112.640,37.037 112.500,37.145 112.500 C 37.359 112.500,36.798 111.268,36.500 111.083 C 36.405 111.025,36.371 110.907,36.424 110.822 C 36.477 110.736,36.428 110.667,36.315 110.667 C 36.203 110.667,36.154 110.624,36.207 110.571 C 36.318 110.460,35.011 107.777,34.806 107.694 C 34.729 107.664,34.667 107.458,34.667 107.236 C 34.667 107.015,34.610 106.833,34.540 106.833 C 34.470 106.833,34.315 106.675,34.194 106.483 C 34.024 106.209,34.022 106.161,34.187 106.263 C 34.304 106.335,34.229 106.155,34.021 105.863 C 33.814 105.572,33.690 105.333,33.747 105.333 C 33.804 105.333,33.670 105.090,33.450 104.792 C 33.230 104.494,33.003 104.119,32.947 103.958 C 32.796 103.531,16.098 103.504,15.934 103.930 M157.623 103.766 C 157.555 103.834,157.500 117.226,157.500 133.528 L 157.500 163.167 165.292 163.167 L 173.083 163.167 173.083 154.958 L 173.083 146.750 178.792 146.750 C 181.931 146.750,184.500 146.696,184.500 146.629 C 184.500 146.563,184.697 146.583,184.937 146.674 C 185.342 146.828,185.820 146.808,187.333 146.574 C 187.997 146.471,188.963 146.351,189.333 146.325 C 189.934 146.283,191.333 145.936,191.333 145.830 C 191.333 145.765,191.502 145.725,191.708 145.740 C 192.163 145.774,193.669 145.365,193.958 145.129 C 194.073 145.036,194.167 145.010,194.167 145.072 C 194.167 145.135,194.333 145.069,194.537 144.926 C 194.741 144.783,195.051 144.667,195.227 144.667 C 195.637 144.667,198.840 142.812,198.731 142.636 C 198.686 142.563,198.761 142.547,198.898 142.599 C 199.044 142.655,199.236 142.552,199.363 142.347 C 199.483 142.156,199.677 142.000,199.795 142.000 C 199.914 142.000,200.051 141.894,200.101 141.765 C 200.150 141.636,200.380 141.483,200.611 141.425 C 200.896 141.353,200.999 141.239,200.934 141.068 C 200.881 140.929,200.899 140.854,200.975 140.901 C 201.148 141.008,201.833 140.539,201.833 140.314 C 201.833 140.222,201.740 140.194,201.625 140.253 C 201.414 140.360,201.776 140.059,202.458 139.560 C 202.665 139.410,202.833 139.147,202.833 138.977 C 202.833 138.806,202.942 138.667,203.075 138.667 C 203.337 138.667,204.214 137.485,204.405 136.875 C 204.470 136.669,204.589 136.500,204.669 136.500 C 204.750 136.500,204.946 136.087,205.105 135.583 C 205.264 135.079,205.447 134.667,205.511 134.667 C 205.659 134.667,205.928 133.830,206.029 133.049 C 206.044 132.938,206.118 132.887,206.194 132.934 C 206.271 132.981,206.339 132.959,206.346 132.885 C 206.361 132.731,206.397 132.561,206.652 131.460 C 206.752 131.025,206.822 130.612,206.807 130.543 C 206.792 130.473,206.869 130.201,206.977 129.936 C 207.086 129.672,207.130 129.312,207.074 129.137 C 207.018 128.961,207.072 128.694,207.195 128.543 C 207.384 128.310,207.380 128.291,207.167 128.417 C 206.958 128.540,206.951 128.521,207.127 128.305 C 207.242 128.162,207.330 127.791,207.321 127.481 C 207.313 127.171,207.356 126.523,207.417 126.042 C 207.483 125.520,207.463 125.167,207.369 125.167 C 207.270 125.167,207.264 124.875,207.353 124.399 C 207.432 123.976,207.450 123.282,207.392 122.857 C 207.335 122.431,207.294 121.802,207.302 121.458 C 207.310 121.115,207.252 120.833,207.174 120.833 C 207.097 120.833,207.049 120.608,207.068 120.333 C 207.087 120.058,207.061 119.833,207.010 119.833 C 206.958 119.832,206.902 119.554,206.884 119.215 C 206.835 118.272,206.682 117.804,206.467 117.937 C 206.339 118.016,206.314 117.959,206.388 117.764 C 206.538 117.373,206.342 116.642,206.123 116.777 C 206.019 116.841,205.998 116.804,206.072 116.685 C 206.140 116.575,206.076 116.304,205.931 116.082 C 205.786 115.860,205.667 115.518,205.667 115.321 C 205.667 115.067,205.592 114.993,205.408 115.064 C 205.263 115.119,205.193 115.092,205.249 115.002 C 205.304 114.913,205.254 114.670,205.139 114.462 C 204.913 114.055,204.886 113.972,204.854 113.573 C 204.843 113.431,204.758 113.360,204.667 113.417 C 204.575 113.473,204.500 113.383,204.500 113.216 C 204.500 113.050,204.313 112.711,204.083 112.464 C 203.854 112.217,203.667 111.936,203.667 111.841 C 203.667 111.745,203.554 111.667,203.417 111.667 C 203.279 111.667,203.167 111.589,203.167 111.493 C 203.167 111.294,203.054 111.153,201.935 109.956 C 201.487 109.476,201.179 109.196,201.251 109.333 C 201.323 109.471,201.118 109.321,200.796 109.000 C 199.687 107.896,197.538 106.508,197.182 106.666 C 197.144 106.683,197.047 106.577,196.965 106.432 C 196.883 106.286,196.705 106.167,196.569 106.167 C 196.433 106.167,196.155 106.060,195.952 105.930 C 195.749 105.800,195.433 105.668,195.250 105.638 C 195.067 105.608,194.875 105.527,194.824 105.459 C 194.773 105.391,194.529 105.318,194.282 105.298 C 194.035 105.277,193.833 105.193,193.833 105.111 C 193.833 105.029,193.683 105.000,193.500 105.048 C 193.317 105.096,193.167 105.059,193.167 104.967 C 193.167 104.874,193.067 104.836,192.945 104.883 C 192.824 104.929,192.315 104.829,191.815 104.661 C 191.315 104.492,190.507 104.317,190.020 104.271 C 189.532 104.226,189.092 104.147,189.040 104.096 C 188.989 104.045,188.832 104.096,188.692 104.210 C 188.488 104.375,188.461 104.375,188.561 104.208 C 188.642 104.074,188.579 103.993,188.385 103.981 C 188.219 103.971,187.821 103.925,187.500 103.880 C 186.536 103.743,157.755 103.634,157.623 103.766 M213.127 103.781 C 212.688 103.896,212.670 162.376,213.108 162.861 C 213.386 163.167,259.616 163.367,260.403 163.066 C 260.637 162.976,260.667 162.261,260.667 156.731 L 260.667 150.497 244.625 150.540 L 228.583 150.583 228.629 145.083 L 228.675 139.583 242.796 139.545 L 256.917 139.507 256.960 133.337 L 257.004 127.167 242.835 127.167 L 228.667 127.167 228.667 121.833 L 228.667 116.500 244.071 116.500 C 257.854 116.500,259.504 116.472,259.738 116.238 C 260.061 115.915,260.144 104.000,259.823 104.000 C 259.726 104.000,259.693 103.926,259.749 103.836 C 259.850 103.672,213.745 103.618,213.127 103.781 M343.188 103.937 C 342.917 104.127,342.825 104.324,342.877 104.599 C 342.918 104.814,342.888 104.950,342.809 104.902 C 342.731 104.853,342.667 104.973,342.667 105.167 C 342.667 105.391,342.597 105.476,342.474 105.401 C 342.368 105.335,342.327 105.354,342.382 105.444 C 342.438 105.534,342.338 105.845,342.160 106.137 C 341.957 106.472,341.910 106.667,342.034 106.667 C 342.142 106.667,342.091 106.768,341.921 106.893 C 341.727 107.035,341.653 107.223,341.721 107.401 C 341.781 107.557,341.770 107.647,341.697 107.602 C 341.497 107.478,340.278 110.053,340.278 110.600 C 340.278 110.728,340.203 110.833,340.111 110.833 C 340.019 110.833,339.993 110.882,340.053 110.942 C 340.113 111.002,340.008 111.301,339.819 111.606 C 339.631 111.911,339.524 112.237,339.582 112.331 C 339.640 112.425,339.586 112.541,339.462 112.589 C 339.338 112.636,339.224 112.841,339.209 113.043 C 339.194 113.245,339.066 113.495,338.924 113.598 C 338.783 113.702,338.667 113.985,338.667 114.227 C 338.667 114.469,338.587 114.667,338.490 114.667 C 338.393 114.667,338.360 114.742,338.417 114.833 C 338.473 114.925,338.456 115.000,338.379 115.000 C 338.301 115.000,338.225 115.168,338.210 115.373 C 338.194 115.577,338.103 115.771,338.007 115.803 C 337.912 115.835,337.833 115.966,337.833 116.094 C 337.833 116.221,337.653 116.721,337.433 117.205 C 337.213 117.688,336.838 118.510,336.600 119.031 C 336.362 119.552,336.167 120.096,336.167 120.240 C 336.167 120.383,336.099 120.500,336.016 120.500 C 335.861 120.500,335.431 121.478,335.480 121.720 C 335.495 121.796,335.365 122.133,335.191 122.470 C 334.717 123.387,334.438 124.067,334.474 124.217 C 334.492 124.291,334.391 124.466,334.251 124.606 C 334.111 124.746,334.040 124.929,334.092 125.013 C 334.144 125.098,334.108 125.167,334.013 125.167 C 333.918 125.167,333.789 125.373,333.728 125.625 C 333.666 125.877,333.533 126.140,333.433 126.208 C 333.307 126.294,333.328 126.385,333.500 126.497 C 333.714 126.638,333.708 126.662,333.458 126.664 C 333.274 126.666,333.167 126.795,333.167 127.016 C 333.167 127.208,333.010 127.586,332.818 127.855 C 332.626 128.125,332.511 128.455,332.563 128.589 C 332.614 128.723,332.585 128.833,332.498 128.833 C 332.411 128.833,332.293 129.019,332.236 129.246 C 332.179 129.472,331.915 130.078,331.648 130.592 C 331.381 131.106,331.213 131.607,331.274 131.706 C 331.336 131.806,331.307 131.837,331.209 131.776 C 331.021 131.660,330.625 132.570,330.791 132.736 C 330.845 132.789,330.797 132.833,330.685 132.833 C 330.572 132.833,330.523 132.902,330.575 132.986 C 330.626 133.070,330.582 133.167,330.476 133.203 C 330.369 133.238,330.267 133.413,330.247 133.592 C 330.205 133.976,329.787 135.001,329.316 135.874 C 329.131 136.218,329.026 136.574,329.083 136.666 C 329.140 136.758,329.108 136.833,329.013 136.833 C 328.918 136.833,328.789 137.040,328.728 137.292 C 328.666 137.544,328.547 137.795,328.463 137.850 C 328.380 137.905,328.295 138.055,328.276 138.183 C 328.256 138.312,328.175 138.522,328.095 138.651 C 327.986 138.825,328.009 138.849,328.183 138.747 C 328.311 138.671,328.273 138.773,328.098 138.972 C 327.923 139.172,327.828 139.384,327.887 139.443 C 327.946 139.502,327.865 139.657,327.706 139.788 C 327.547 139.918,327.516 139.974,327.637 139.912 C 327.880 139.787,327.558 140.480,327.277 140.685 C 327.201 140.741,327.150 140.838,327.164 140.899 C 327.179 140.961,327.028 141.348,326.829 141.759 C 326.630 142.170,326.509 142.617,326.561 142.751 C 326.615 142.891,326.568 142.979,326.452 142.956 C 326.341 142.935,326.269 143.010,326.292 143.125 C 326.315 143.240,326.270 143.333,326.193 143.333 C 326.116 143.333,325.953 143.652,325.830 144.042 C 325.707 144.431,325.536 144.844,325.450 144.958 C 325.347 145.095,325.357 145.167,325.480 145.167 C 325.582 145.167,325.667 145.250,325.667 145.351 C 325.667 145.453,325.550 145.491,325.408 145.436 C 325.266 145.382,325.192 145.406,325.244 145.490 C 325.296 145.575,325.257 145.694,325.158 145.755 C 325.059 145.817,325.018 145.972,325.067 146.100 C 325.116 146.228,325.093 146.333,325.015 146.333 C 324.791 146.333,324.455 147.290,324.594 147.532 C 324.663 147.652,324.659 147.695,324.585 147.628 C 324.396 147.456,324.012 148.007,324.005 148.458 C 324.002 148.665,323.932 148.833,323.850 148.833 C 323.689 148.833,323.301 149.720,323.245 150.212 C 323.227 150.374,323.082 150.651,322.923 150.826 C 322.764 151.002,322.683 151.225,322.744 151.323 C 322.804 151.420,322.774 151.500,322.677 151.500 C 322.579 151.500,322.509 151.556,322.520 151.625 C 322.575 151.972,322.477 152.333,322.272 152.538 C 322.078 152.732,321.846 153.239,321.737 153.708 C 321.721 153.777,321.690 153.890,321.668 153.958 C 321.645 154.027,321.636 154.140,321.647 154.208 C 321.658 154.277,321.587 154.333,321.490 154.333 C 321.393 154.333,321.360 154.408,321.417 154.500 C 321.473 154.592,321.440 154.667,321.343 154.667 C 321.246 154.667,321.167 154.859,321.167 155.093 C 321.167 155.376,321.101 155.479,320.972 155.399 C 320.841 155.319,320.811 155.369,320.881 155.551 C 320.938 155.700,320.909 155.870,320.816 155.928 C 320.606 156.057,320.311 156.737,320.116 157.542 C 320.088 157.656,319.867 158.158,319.625 158.656 C 319.383 159.155,319.224 159.624,319.270 159.699 C 319.316 159.774,319.237 159.881,319.094 159.936 C 318.951 159.991,318.833 160.178,318.833 160.351 C 318.833 160.525,318.774 160.667,318.702 160.667 C 318.630 160.667,318.559 160.829,318.544 161.027 C 318.529 161.225,318.436 161.436,318.338 161.497 C 318.172 161.600,317.993 162.133,317.959 162.625 C 317.951 162.740,317.863 162.834,317.764 162.836 C 317.665 162.837,317.696 162.911,317.833 163.000 C 318.181 163.224,333.889 163.224,333.750 163.000 C 333.693 162.908,333.772 162.833,333.925 162.833 C 334.103 162.833,334.168 162.744,334.106 162.583 C 334.054 162.446,334.075 162.333,334.154 162.333 C 334.233 162.333,334.342 162.217,334.397 162.075 C 334.452 161.932,334.435 161.854,334.359 161.901 C 334.284 161.947,334.222 161.883,334.222 161.759 C 334.222 161.626,334.326 161.571,334.471 161.627 C 334.654 161.697,334.698 161.636,334.635 161.398 C 334.589 161.220,334.640 160.990,334.749 160.888 C 334.859 160.785,334.935 160.472,334.918 160.191 C 334.901 159.910,334.947 159.717,335.019 159.762 C 335.091 159.806,335.231 159.691,335.331 159.505 C 335.430 159.319,335.470 159.167,335.419 159.167 C 335.368 159.167,335.434 158.998,335.566 158.792 C 335.699 158.585,335.832 158.267,335.862 158.083 C 335.892 157.900,336.010 157.651,336.125 157.530 C 336.240 157.409,336.333 157.180,336.333 157.021 C 336.333 156.863,336.423 156.643,336.533 156.533 C 336.643 156.423,336.672 156.333,336.597 156.333 C 336.523 156.333,336.586 156.144,336.738 155.912 C 336.890 155.680,336.969 155.418,336.914 155.329 C 336.859 155.240,336.902 155.167,337.011 155.167 C 337.149 155.167,337.140 155.084,336.979 154.885 C 336.778 154.638,336.786 154.618,337.050 154.717 C 337.218 154.780,337.309 154.762,337.256 154.676 C 337.204 154.592,337.234 154.478,337.323 154.423 C 337.412 154.368,337.443 154.213,337.392 154.078 C 337.340 153.943,337.389 153.833,337.502 153.833 C 337.627 153.833,337.670 153.698,337.614 153.484 C 337.564 153.291,337.567 153.178,337.621 153.233 C 337.676 153.287,337.804 153.163,337.907 152.957 L 338.093 152.583 350.742 152.541 C 357.699 152.517,363.340 152.549,363.278 152.610 C 363.217 152.672,363.282 152.851,363.423 153.007 C 363.565 153.164,363.665 153.357,363.647 153.437 C 363.628 153.518,363.712 153.808,363.834 154.083 C 364.088 154.658,364.070 154.608,364.240 155.208 C 364.311 155.460,364.441 155.667,364.528 155.667 C 364.615 155.667,364.644 155.736,364.592 155.820 C 364.540 155.904,364.597 156.074,364.720 156.196 C 364.843 156.319,364.912 156.513,364.875 156.626 C 364.837 156.740,364.879 156.833,364.968 156.833 C 365.057 156.833,365.167 157.077,365.211 157.375 C 365.326 158.142,366.313 160.702,366.956 161.900 C 367.098 162.165,367.223 162.540,367.232 162.733 L 367.250 163.083 375.545 163.129 C 382.320 163.167,383.856 163.135,383.925 162.954 C 384.023 162.701,383.590 161.576,383.336 161.418 C 383.243 161.361,383.167 161.210,383.167 161.084 C 383.167 160.958,383.079 160.644,382.972 160.386 C 382.865 160.128,382.772 159.863,382.764 159.797 C 382.756 159.731,382.619 159.525,382.460 159.339 C 382.267 159.113,382.239 158.999,382.377 158.997 C 382.505 158.996,382.520 158.948,382.417 158.872 C 382.325 158.805,382.242 158.656,382.233 158.542 C 382.188 157.975,382.143 157.857,381.837 157.504 C 381.655 157.295,381.544 157.064,381.590 156.990 C 381.635 156.917,381.596 156.809,381.503 156.752 C 381.410 156.694,381.333 156.516,381.333 156.357 C 381.333 156.197,381.244 155.978,381.136 155.869 C 381.027 155.760,380.912 155.505,380.881 155.301 C 380.850 155.098,380.753 154.887,380.666 154.833 C 380.578 154.779,380.329 154.173,380.111 153.487 C 379.893 152.801,379.637 152.092,379.542 151.911 C 379.448 151.731,379.231 151.271,379.061 150.890 C 378.892 150.509,378.705 150.227,378.645 150.263 C 378.586 150.300,378.548 150.237,378.560 150.123 C 378.607 149.702,377.292 146.839,377.104 146.952 C 376.984 147.024,376.988 146.975,377.117 146.817 C 377.277 146.618,377.219 146.364,376.825 145.537 C 376.555 144.969,376.333 144.438,376.333 144.356 C 376.333 144.274,376.221 144.114,376.083 144.000 C 375.946 143.886,375.833 143.652,375.833 143.480 C 375.833 143.307,375.754 143.167,375.657 143.167 C 375.560 143.167,375.524 143.097,375.576 143.011 C 375.629 142.926,375.484 142.443,375.253 141.939 C 375.022 141.434,374.833 140.923,374.833 140.802 C 374.832 140.682,374.682 140.338,374.499 140.038 C 374.316 139.738,374.167 139.428,374.167 139.350 C 374.167 139.273,374.001 138.843,373.799 138.396 C 373.596 137.949,373.428 137.533,373.424 137.472 C 373.420 137.411,373.360 137.305,373.292 137.236 C 373.223 137.167,373.167 136.969,373.167 136.796 C 373.167 136.622,373.092 136.527,373.000 136.583 C 372.908 136.640,372.833 136.574,372.833 136.437 C 372.833 136.300,372.746 135.977,372.639 135.719 C 372.532 135.461,372.438 135.197,372.431 135.133 C 372.423 135.069,372.323 134.923,372.208 134.808 C 372.094 134.694,372.000 134.428,372.000 134.217 C 372.000 134.006,371.941 133.833,371.869 133.833 C 371.797 133.833,371.725 133.671,371.710 133.473 C 371.696 133.275,371.598 133.061,371.494 132.996 C 371.390 132.932,371.319 132.828,371.336 132.766 C 371.408 132.508,370.948 131.679,370.788 131.778 C 370.692 131.837,370.665 131.805,370.727 131.704 C 370.788 131.604,370.766 131.478,370.677 131.423 C 370.588 131.368,370.550 131.231,370.593 131.118 C 370.636 131.006,370.520 130.617,370.336 130.255 C 370.151 129.893,370.000 129.462,370.000 129.298 C 370.000 129.134,369.925 129.000,369.833 129.000 C 369.742 129.000,369.682 128.944,369.700 128.875 C 369.762 128.640,369.478 128.000,369.312 128.000 C 369.220 128.000,369.162 127.869,369.182 127.708 C 369.222 127.384,369.013 126.799,368.808 126.659 C 368.735 126.610,368.651 126.411,368.621 126.217 C 368.592 126.024,368.496 125.765,368.407 125.641 C 368.018 125.097,367.637 124.295,367.822 124.409 C 367.968 124.500,367.963 124.437,367.806 124.184 C 367.685 123.991,367.532 123.833,367.465 123.833 C 367.398 123.833,367.384 123.728,367.433 123.600 C 367.482 123.472,367.446 123.320,367.352 123.262 C 367.258 123.203,367.228 123.034,367.286 122.884 C 367.353 122.709,367.324 122.653,367.205 122.726 C 367.093 122.796,367.029 122.718,367.044 122.529 C 367.069 122.187,366.019 119.645,365.785 119.481 C 365.704 119.425,365.645 119.332,365.652 119.273 C 365.675 119.102,365.612 118.887,365.365 118.292 C 365.261 118.040,365.100 117.833,365.009 117.833 C 364.918 117.833,364.884 117.728,364.933 117.600 C 364.982 117.472,364.943 117.318,364.845 117.257 C 364.747 117.197,364.667 116.924,364.667 116.652 C 364.667 116.375,364.561 116.116,364.428 116.065 C 364.297 116.014,364.189 115.848,364.189 115.695 C 364.189 115.292,363.774 114.167,363.626 114.167 C 363.557 114.167,363.500 114.058,363.500 113.925 C 363.500 113.581,363.139 112.831,363.011 112.910 C 362.953 112.946,362.897 112.850,362.887 112.696 C 362.841 111.974,362.243 110.670,362.000 110.760 C 361.813 110.829,361.798 110.805,361.939 110.663 C 362.141 110.459,361.886 109.500,361.630 109.500 C 361.559 109.500,361.500 109.386,361.500 109.248 C 361.500 109.109,361.430 108.865,361.344 108.706 C 361.259 108.547,361.090 108.173,360.970 107.875 C 360.850 107.577,360.698 107.333,360.631 107.333 C 360.565 107.333,360.549 107.233,360.596 107.110 C 360.643 106.987,360.570 106.794,360.434 106.681 C 360.298 106.568,360.228 106.369,360.278 106.238 C 360.328 106.107,360.286 106.000,360.184 106.000 C 360.083 106.000,360.000 105.891,360.000 105.758 C 360.000 105.625,359.869 105.432,359.708 105.329 C 359.434 105.153,359.434 105.147,359.717 105.235 C 360.039 105.336,359.655 104.425,359.250 104.128 C 359.148 104.053,359.168 104.004,359.302 104.003 C 359.421 104.001,359.473 103.925,359.417 103.833 C 359.220 103.516,343.648 103.615,343.188 103.937 M185.319 116.500 C 185.480 116.500,185.663 116.552,185.727 116.616 C 185.791 116.680,185.935 116.752,186.046 116.776 C 186.158 116.800,186.527 116.889,186.867 116.974 C 187.206 117.059,187.525 117.087,187.575 117.036 C 187.625 116.986,187.667 117.036,187.667 117.149 C 187.667 117.261,187.733 117.312,187.814 117.262 C 187.896 117.211,188.055 117.282,188.168 117.419 C 188.281 117.555,188.548 117.667,188.761 117.667 C 188.973 117.667,189.201 117.753,189.266 117.859 C 189.344 117.986,189.305 118.010,189.151 117.930 C 189.022 117.863,189.059 117.924,189.233 118.066 C 189.407 118.207,189.613 118.283,189.691 118.235 C 189.769 118.187,189.833 118.261,189.833 118.401 C 189.833 118.541,189.983 118.735,190.165 118.832 C 190.347 118.930,190.479 119.073,190.457 119.151 C 190.435 119.228,190.655 119.556,190.947 119.879 C 191.239 120.202,191.433 120.512,191.378 120.567 C 191.323 120.622,191.378 120.667,191.500 120.667 C 191.622 120.667,191.679 120.710,191.625 120.764 C 191.572 120.817,191.643 121.136,191.784 121.472 C 192.465 123.099,192.679 126.711,192.167 127.917 C 192.050 128.192,191.960 128.543,191.966 128.697 C 191.972 128.852,191.870 129.067,191.739 129.176 C 191.607 129.285,191.500 129.507,191.500 129.669 C 191.500 129.832,191.383 130.009,191.239 130.064 C 191.096 130.119,191.026 130.240,191.083 130.332 C 191.140 130.424,191.116 130.500,191.030 130.500 C 190.944 130.500,190.781 130.725,190.667 131.000 C 190.553 131.275,190.412 131.501,190.355 131.503 C 190.297 131.505,189.954 131.765,189.592 132.081 C 189.230 132.397,188.900 132.623,188.860 132.583 C 188.820 132.543,188.592 132.647,188.352 132.815 C 187.886 133.141,185.854 133.857,185.167 133.937 C 184.558 134.008,184.186 134.091,184.102 134.176 C 184.061 134.217,181.547 134.229,178.514 134.204 L 173.000 134.158 173.000 125.329 L 173.000 116.500 178.375 116.482 C 185.065 116.460,184.831 116.468,184.846 116.258 C 184.854 116.162,184.897 116.177,184.944 116.292 C 184.990 116.406,185.159 116.500,185.319 116.500 M351.240 121.290 C 351.303 121.576,351.462 121.899,351.592 122.007 C 351.723 122.116,351.790 122.269,351.740 122.349 C 351.691 122.428,351.735 122.650,351.837 122.841 C 351.940 123.032,352.054 123.315,352.091 123.469 C 352.202 123.927,352.822 125.595,352.828 125.452 C 352.831 125.379,352.938 125.417,353.065 125.535 C 353.212 125.672,353.235 125.789,353.127 125.856 C 353.027 125.919,353.016 126.055,353.101 126.190 C 353.180 126.315,353.254 126.454,353.266 126.500 C 353.277 126.546,353.343 126.822,353.412 127.114 C 353.481 127.406,353.649 127.688,353.786 127.741 C 353.923 127.793,353.997 127.934,353.951 128.053 C 353.905 128.173,354.008 128.566,354.178 128.927 C 354.349 129.288,354.491 129.682,354.494 129.802 C 354.498 129.923,354.585 129.967,354.692 129.901 C 354.815 129.825,354.839 129.855,354.760 129.984 C 354.631 130.192,354.842 130.899,355.274 131.709 C 355.409 131.961,355.473 132.242,355.416 132.334 C 355.360 132.425,355.431 132.500,355.573 132.500 C 355.716 132.500,355.833 132.579,355.833 132.677 C 355.833 132.774,355.768 132.812,355.687 132.763 C 355.472 132.630,356.327 134.700,356.629 135.043 C 356.771 135.204,356.838 135.384,356.778 135.444 C 356.718 135.504,356.732 135.635,356.809 135.735 C 356.886 135.835,357.045 136.273,357.162 136.708 C 357.280 137.144,357.446 137.500,357.531 137.500 C 357.617 137.500,357.644 137.568,357.593 137.652 C 357.469 137.851,357.665 138.354,357.827 138.254 C 357.897 138.211,357.933 138.361,357.908 138.588 C 357.883 138.815,357.931 139.000,358.015 139.000 C 358.098 139.000,358.167 139.183,358.167 139.407 C 358.167 139.631,358.242 139.860,358.333 139.917 C 358.425 139.973,358.500 140.165,358.500 140.343 C 358.500 140.787,342.943 140.859,342.773 140.417 C 342.720 140.279,342.740 140.167,342.816 140.167 C 342.980 140.167,343.500 138.864,343.500 138.453 C 343.500 138.295,343.575 138.167,343.667 138.167 C 343.758 138.167,343.833 138.073,343.833 137.958 C 343.832 137.778,343.999 137.391,344.693 135.961 C 344.877 135.582,344.871 135.457,344.674 135.579 C 344.586 135.633,344.623 135.469,344.756 135.214 C 344.889 134.959,344.998 134.665,344.999 134.562 C 345.000 134.459,345.113 134.281,345.250 134.167 C 345.387 134.053,345.500 133.796,345.500 133.596 C 345.500 133.397,345.578 133.156,345.673 133.061 C 345.768 132.966,345.885 132.671,345.933 132.406 C 345.981 132.141,346.077 131.885,346.147 131.837 C 346.350 131.697,346.825 130.381,346.713 130.269 C 346.657 130.213,346.693 130.167,346.793 130.167 C 347.017 130.167,347.396 129.070,347.252 128.837 C 347.194 128.743,347.218 128.667,347.304 128.667 C 347.452 128.667,347.617 128.294,347.767 127.619 C 347.803 127.456,347.956 127.135,348.106 126.906 C 348.256 126.677,348.334 126.446,348.281 126.392 C 348.227 126.338,348.292 126.184,348.426 126.050 C 348.560 125.916,348.628 125.739,348.577 125.657 C 348.526 125.574,348.647 125.288,348.845 125.019 C 349.044 124.751,349.160 124.458,349.105 124.368 C 349.049 124.278,349.111 124.116,349.241 124.007 C 349.457 123.828,349.763 122.900,349.641 122.794 C 349.612 122.770,349.714 122.573,349.865 122.356 C 350.017 122.139,350.102 121.858,350.053 121.731 C 350.004 121.604,350.042 121.500,350.136 121.500 C 350.230 121.500,350.394 121.238,350.500 120.917 C 350.724 120.237,351.045 120.398,351.240 121.290 " stroke="none" fill="#34b44c" fill-rule="evenodd"></path><path id="path3" d="M289.000 102.566 C 289.000 102.727,289.470 102.788,289.682 102.654 C 289.853 102.546,289.792 102.504,289.458 102.503 C 289.206 102.501,289.000 102.529,289.000 102.566 M295.935 102.637 C 295.889 102.712,296.072 102.741,296.342 102.701 C 296.612 102.661,296.833 102.600,296.833 102.564 C 296.833 102.437,296.018 102.503,295.935 102.637 M359.329 104.110 C 359.423 104.156,359.500 104.296,359.500 104.421 C 359.500 104.545,359.574 104.693,359.664 104.749 C 359.769 104.813,359.778 104.713,359.690 104.475 C 359.614 104.269,359.463 104.084,359.355 104.063 C 359.247 104.042,359.235 104.063,359.329 104.110 M342.558 105.003 C 342.502 105.280,342.392 105.547,342.312 105.597 C 342.232 105.646,342.167 105.771,342.167 105.875 C 342.167 106.190,342.656 105.439,342.661 105.115 C 342.664 104.949,342.741 104.859,342.831 104.915 C 342.926 104.974,342.954 104.907,342.897 104.759 C 342.752 104.380,342.671 104.439,342.558 105.003 M273.833 108.917 C 273.618 109.146,273.496 109.333,273.562 109.333 C 273.627 109.333,273.883 109.146,274.131 108.917 C 274.378 108.688,274.500 108.500,274.402 108.500 C 274.305 108.500,274.049 108.688,273.833 108.917 M63.167 110.833 C 63.060 111.032,63.010 111.233,63.056 111.279 C 63.102 111.324,63.227 111.199,63.333 111.000 C 63.440 110.801,63.490 110.601,63.444 110.555 C 63.398 110.509,63.273 110.634,63.167 110.833 M202.764 110.893 C 202.822 111.044,202.936 111.167,203.018 111.167 C 203.100 111.167,203.167 111.279,203.167 111.417 C 203.167 111.554,203.244 111.667,203.339 111.667 C 203.556 111.667,203.294 111.147,202.922 110.838 C 202.699 110.652,202.675 110.661,202.764 110.893 M287.167 116.393 C 287.167 116.528,287.073 116.677,286.958 116.723 C 286.827 116.776,286.820 116.812,286.938 116.820 C 287.227 116.840,287.552 116.385,287.341 116.255 C 287.245 116.196,287.167 116.258,287.167 116.393 M173.078 125.333 C 173.078 130.237,173.099 132.244,173.125 129.792 C 173.151 127.340,173.151 123.327,173.125 120.875 C 173.099 118.423,173.078 120.429,173.078 125.333 M207.047 120.375 C 207.061 120.627,207.131 120.833,207.203 120.833 C 207.363 120.833,207.353 120.684,207.166 120.250 C 207.042 119.962,207.025 119.979,207.047 120.375 M269.218 120.917 C 269.219 121.467,269.250 121.672,269.287 121.372 C 269.325 121.072,269.324 120.622,269.286 120.372 C 269.248 120.122,269.217 120.367,269.218 120.917 M335.171 122.071 C 334.924 122.722,334.973 122.825,335.270 122.277 C 335.411 122.017,335.485 121.763,335.434 121.712 C 335.384 121.662,335.266 121.823,335.171 122.071 M207.302 124.583 C 207.264 124.904,207.294 125.167,207.367 125.167 C 207.440 125.167,207.500 124.904,207.500 124.583 C 207.500 124.263,207.471 124.000,207.435 124.000 C 207.399 124.000,207.339 124.263,207.302 124.583 M368.023 125.007 C 368.216 125.378,368.411 125.644,368.456 125.599 C 368.538 125.518,367.867 124.333,367.739 124.333 C 367.702 124.333,367.830 124.637,368.023 125.007 M56.100 125.183 C 55.905 125.574,55.898 125.654,56.070 125.511 C 56.275 125.341,56.549 124.667,56.413 124.667 C 56.383 124.667,56.242 124.899,56.100 125.183 M352.833 125.634 C 352.833 125.890,352.907 125.961,353.097 125.888 C 353.242 125.833,353.299 125.740,353.222 125.683 C 353.146 125.626,353.027 125.512,352.958 125.429 C 352.890 125.346,352.833 125.438,352.833 125.634 M44.342 126.833 C 44.338 127.131,44.615 127.607,44.727 127.495 C 44.771 127.452,44.702 127.229,44.576 127.000 C 44.442 126.758,44.344 126.688,44.342 126.833 M69.052 127.625 C 68.995 127.785,68.917 127.992,68.879 128.083 C 68.840 128.175,68.927 128.104,69.071 127.926 C 69.333 127.603,69.412 127.333,69.245 127.333 C 69.196 127.333,69.109 127.465,69.052 127.625 M369.115 127.583 C 369.250 127.970,369.667 128.434,369.667 128.197 C 369.667 128.109,369.517 127.860,369.333 127.643 C 369.045 127.304,369.015 127.296,369.115 127.583 M270.524 128.227 C 270.641 128.490,270.768 128.614,270.805 128.503 C 270.842 128.391,270.745 128.177,270.591 128.025 C 270.328 127.768,270.323 127.780,270.524 128.227 M207.153 128.208 C 207.019 128.616,207.021 129.173,207.156 129.090 C 207.251 129.031,207.313 128.800,207.294 128.575 C 207.266 128.226,207.202 128.060,207.153 128.208 M190.073 131.527 C 189.584 132.053,189.584 132.054,190.035 131.735 C 190.283 131.560,190.524 131.323,190.571 131.208 C 190.700 130.892,190.607 130.951,190.073 131.527 M35.006 136.926 C 35.016 137.206,35.488 137.929,35.489 137.667 C 35.489 137.529,35.379 137.271,35.245 137.093 C 35.110 136.915,35.003 136.840,35.006 136.926 M285.500 138.064 C 285.500 138.100,285.721 138.161,285.991 138.201 C 286.261 138.241,286.444 138.212,286.398 138.137 C 286.315 138.003,285.500 137.937,285.500 138.064 M229.632 139.624 C 230.208 139.656,231.108 139.656,231.632 139.623 C 232.155 139.590,231.683 139.563,230.583 139.564 C 229.483 139.564,229.055 139.591,229.632 139.624 M244.375 139.625 C 245.635 139.653,247.698 139.653,248.958 139.625 C 250.219 139.596,249.188 139.573,246.667 139.573 C 244.146 139.573,243.115 139.596,244.375 139.625 M252.633 139.624 C 253.394 139.655,254.594 139.655,255.300 139.624 C 256.006 139.593,255.383 139.567,253.917 139.567 C 252.450 139.568,251.872 139.593,252.633 139.624 M342.789 140.458 C 342.890 140.723,358.500 140.767,358.500 140.503 C 358.500 140.399,355.624 140.323,350.605 140.295 C 344.342 140.259,342.726 140.293,342.789 140.458 M200.167 141.672 C 200.167 141.767,199.998 141.912,199.792 141.995 C 199.548 142.093,199.509 142.149,199.683 142.156 C 199.829 142.162,200.084 142.017,200.250 141.833 C 200.421 141.644,200.468 141.500,200.359 141.500 C 200.253 141.500,200.167 141.577,200.167 141.672 M298.917 143.333 C 299.083 143.517,299.293 143.667,299.385 143.667 C 299.476 143.667,299.378 143.517,299.167 143.333 C 298.955 143.150,298.745 143.000,298.699 143.000 C 298.653 143.000,298.751 143.150,298.917 143.333 M197.083 143.754 C 196.717 143.980,196.483 144.165,196.564 144.166 C 196.734 144.167,197.833 143.507,197.833 143.403 C 197.833 143.297,197.800 143.313,197.083 143.754 M325.221 145.276 C 325.281 145.337,325.237 145.499,325.124 145.636 C 324.941 145.857,324.961 145.859,325.292 145.653 C 325.735 145.377,325.777 145.167,325.389 145.167 C 325.236 145.167,325.160 145.216,325.221 145.276 M173.076 146.875 C 173.032 146.990,173.017 150.608,173.042 154.917 L 173.087 162.750 173.127 154.794 L 173.167 146.838 178.708 146.792 L 184.250 146.745 178.703 146.706 C 174.390 146.675,173.138 146.713,173.076 146.875 M59.543 147.542 C 59.244 147.919,58.986 148.500,59.119 148.496 C 59.191 148.494,59.380 148.231,59.538 147.913 C 59.833 147.319,59.835 147.172,59.543 147.542 M267.364 150.083 C 267.259 150.313,267.201 150.500,267.234 150.500 C 267.268 150.500,267.418 150.313,267.568 150.083 C 267.718 149.854,267.776 149.667,267.697 149.667 C 267.618 149.667,267.468 149.854,267.364 150.083 M287.596 150.480 C 287.560 150.537,287.749 150.587,288.016 150.591 C 288.282 150.594,288.500 150.547,288.500 150.486 C 288.500 150.345,287.683 150.339,287.596 150.480 M344.363 152.625 C 347.816 152.650,353.516 152.650,357.029 152.625 C 360.542 152.600,357.717 152.579,350.750 152.579 C 343.783 152.579,340.909 152.600,344.363 152.625 M268.068 156.417 C 268.315 156.646,268.559 156.833,268.609 156.833 C 268.765 156.833,267.926 156.006,267.767 156.003 C 267.685 156.001,267.820 156.188,268.068 156.417 M292.121 163.954 C 292.417 163.990,292.942 163.991,293.288 163.955 C 293.634 163.919,293.392 163.889,292.750 163.888 C 292.108 163.887,291.825 163.917,292.121 163.954 " stroke="none" fill="#34b444" fill-rule="evenodd"></path><path id="path4" d="M145.000 121.250 C 145.596 121.562,146.158 121.817,146.250 121.817 C 146.342 121.817,145.929 121.562,145.333 121.250 C 144.737 120.938,144.175 120.683,144.083 120.683 C 143.992 120.683,144.404 120.938,145.000 121.250 M107.356 127.414 C 107.139 127.733,106.834 128.140,106.679 128.319 C 106.523 128.499,106.251 128.851,106.073 129.102 C 105.895 129.353,105.581 129.722,105.375 129.923 C 105.169 130.124,105.000 130.373,105.000 130.477 C 105.000 130.582,104.888 130.667,104.750 130.667 C 104.612 130.667,104.500 130.732,104.500 130.811 C 104.500 131.080,101.312 134.111,100.315 134.791 C 100.096 134.940,99.755 135.233,99.557 135.441 C 97.287 137.823,91.382 139.404,87.750 138.603 C 86.137 138.247,87.790 138.972,89.583 139.407 C 92.190 140.039,92.633 140.083,96.333 140.077 C 102.889 140.065,108.227 138.322,113.792 134.376 C 114.887 133.599,115.020 133.393,114.542 133.213 C 113.405 132.783,110.771 130.454,109.792 129.013 C 109.506 128.593,109.174 128.190,109.053 128.117 C 108.932 128.043,108.833 127.889,108.833 127.773 C 108.833 126.905,107.863 126.669,107.356 127.414 M146.799 135.811 C 145.613 136.582,145.353 136.841,146.294 136.315 C 146.966 135.938,148.013 135.170,147.833 135.186 C 147.787 135.190,147.322 135.471,146.799 135.811 M143.304 137.838 C 142.783 138.107,142.316 138.394,142.265 138.476 C 142.214 138.558,142.659 138.367,143.253 138.051 C 143.847 137.736,144.333 137.445,144.333 137.406 C 144.333 137.304,144.353 137.296,143.304 137.838 M95.333 140.992 C 95.750 141.133,96.784 141.222,96.653 141.105 C 96.615 141.071,96.208 140.999,95.750 140.946 C 95.188 140.882,95.052 140.896,95.333 140.992 M97.250 141.333 C 97.525 141.403,97.938 141.461,98.167 141.461 C 98.538 141.461,98.529 141.447,98.083 141.333 C 97.808 141.263,97.396 141.206,97.167 141.206 C 96.795 141.206,96.804 141.220,97.250 141.333 M98.917 141.621 C 99.100 141.666,99.362 141.788,99.500 141.893 C 99.717 142.059,99.720 142.045,99.521 141.792 C 99.395 141.631,99.133 141.509,98.938 141.519 C 98.601 141.538,98.600 141.543,98.917 141.621 " stroke="none" fill="#da7262" fill-rule="evenodd"></path></g></svg>